<svg xmlns="http://www.w3.org/2000/svg" viewBox="0 0 512 512" width="100%" height="100%">
  <defs>
    <linearGradient id="grad" x1="0%" y1="0%" x2="100%" y2="100%">
      <stop offset="0%" style="stop-color:#0088cc;stop-opacity:1" />
      <stop offset="100%" style="stop-color:#00ffd2;stop-opacity:1" />
    </linearGradient>
  </defs>
  <rect width="512" height="512" rx="128" fill="#030a16" />
  <rect x="8" y="8" width="496" height="496" rx="120" fill="none" stroke="url(#grad)" stroke-width="16" opacity="0.4" />
  <g transform="translate(128, 128) scale(1.6)">
    <circle cx="90" cy="50" r="30" fill="#ffb300" />
    <path d="M90,10 L90,0 M90,90 L90,100 M50,50 L40,50 M130,50 L140,50 M62,22 L54,14 M118,78 L126,86 M62,78 L54,86 M118,22 L126,14" stroke="#ffb300" stroke-width="6" stroke-linecap="round" />
    <path d="M20,66 A20,20 0 0,1 30,28 A25,25 0 0,1 70,22 A30,30 0 0,1 120,40 A20,20 0 0,1 110,76 Z" fill="#ffffff" opacity="0.95" />
    <path d="M20,66 A20,20 0 0,1 30,28 A25,25 0 0,1 70,22 A30,30 0 0,1 120,40 A20,20 0 0,1 110,76 Z" fill="url(#grad)" opacity="0.3" />
  </g>
</svg>